<svg version="1.0" xmlns="http://www.w3.org/2000/svg" width="346.667" height="346.667" viewBox="0 0 260 260"><path d="M129.7 30.1c-.4 1.5-1.1 2-2.1 1.6-1.8-.7-2.2.8-.5 1.9.6.3.9 1.5.6 2.5-.6 2 .7 2.6 1.9.8.4-.8.9-.8 1.7 0 1.7 1.7 2.6 1.3 2-.9-.3-1.2.1-2.2 1.1-2.6.9-.3 1.4-1 1.1-1.5-.3-.4-1.2-.6-2-.2-.9.3-1.5-.1-1.5-1 0-2.5-1.7-2.9-2.3-.6zm-20.6 3.6c-.7 1.4-1.7 2-2.6 1.7-.8-.4-1.5-.2-1.5.4 0 .5.7 1.3 1.5 1.6 1.3.4 1.4 1 .5 2.6-1.2 2.2-.1 2.7 1.8.8.8-.8 1.5-.8 2.8.3 1.6 1.3 1.7 1.2 1.2-.9-.4-1.5-.2-2.5.8-2.9.8-.3 1.4-1 1.4-1.5 0-.6-.7-.7-1.5-.4-1 .4-1.9-.2-2.4-1.6l-.8-2.2-1.2 2.1zm39.9.9c0 1.1-.6 1.5-2 1.1-2.4-.6-2.7.8-.4 1.7 1 .4 1.3 1.3.9 2.7-.6 1.8-.4 2 1.4 1.4 1.2-.4 2.8-.2 3.5.4 1 .9 1.2.6.9-1.3-.3-1.3 0-2.7.6-3 1.6-1.1 1.3-2.6-.4-2-.8.4-1.7-.1-2.1-1-.8-2.1-2.4-2.1-2.4 0zM91.2 44.7c-.7 1.3-2 2.3-3 2.3-1.6.1-1.5.2.1 1.4 1.5 1.2 1.7 1.8.7 3.6-1.1 2-1 2.1.9 1.1 1.1-.6 2.7-.8 3.7-.4 1.4.5 1.6.3 1.1-1.2-.5-1.1-.1-2.2 1-3.1 1.7-1.2 1.7-1.3-.4-1.4-1.5 0-2.3-.7-2.5-2.3l-.3-2.2-1.3 2.2zm76.8-.2c0 .9-.9 1.5-2.2 1.5-1.9 0-2 .1-.5 1.8 1.1 1.2 1.3 2.2.6 3.5-1.1 1.9.1 2.3 1.9.5.8-.8 1.5-.8 2.8.3 1.6 1.2 1.7 1.2 1.1-.5-.5-1.2-.1-2.6.9-3.7 1.6-1.8 1.6-1.9-.4-1.9-1.3 0-2.2-.6-2.2-1.5 0-.8-.4-1.5-1-1.5-.5 0-1 .7-1 1.5zM128 56c-1.5 1.1-1.9 2-1.1 2.4.6.4 1.1.3 1.1-.2 0-1.7 2.9-2.1 4.4-.6 1 .9 1.7 1.1 2.1.3.4-.5.5-1.1.4-1.2-.2-.1-1.3-.7-2.5-1.3-1.6-1-2.5-.8-4.4.6z"/><path d="M129 58.7c-.8 1.2-1.9 1.9-2.6 1.6-1.3-.5-2.5 4-1.4 5.8.4.6 1.2.9 1.8.5.6-.3 1.3 0 1.5.6.3.8.6.6.6-.5.1-.9-.6-1.7-1.4-1.7-.8 0-1.5-.7-1.5-1.6 0-.8.4-1.3.9-.9.6.3 1.5-.4 2.2-1.7 1.1-2.1 1.2-2.1 2.6-.2.8 1 1.9 1.8 2.4 1.6.5-.1.9.5.9 1.3 0 2.4-2.7 1.8-3.4-.8-.5-1.7-.8-1.9-1.5-.8-1.1 1.7-.3 4.3 1 3.5.5-.3.9.3 1 1.3 0 1 .3 1.3.5.6.3-.7 1.2-.9 2-.6 1.2.5 1.9-.7 1.5-3 0-.4.4-.7 1-.7s.9.7.5 1.5c-.3.8 0 1.5.7 1.5.9 0 .9.2 0 .8-.7.5-.9 1.3-.3 2.1.6 1.1 1.3.6 2.9-2 2.5-4 2.6-6.2.6-7.9-1.2-1-1.8-1-3 0-.8.7-1.2 1.6-.9 2.1.3.5 0 .9-.5.9-.6 0-1.1-.5-1.1-1.1 0-.6-.6-.9-1.2-.7-.7.3-2-.5-2.9-1.6l-1.6-2-1.3 2.1zm12.2 2.8c0 .5-.5 1.1-1.1 1.3-.6.2-1.1-.4-1.1-1.3s.5-1.5 1.1-1.3c.6.2 1.1.8 1.1 1.3z"/><path d="M119 60.1c-.7 1.1-.8 2.8-.4 3.7 1.4 3.3 1.3 5-.2 6.3-1.3 1.1-1.4.9-.9-1.2.9-3.7-1.9-8.4-5-8.4-1.4-.1-2.5.3-2.5.7 0 .4.3.8.8.8.4 0 .8 1.7.9 3.8.1 2.3 1 4.3 2.2 5.3 1 .9 2.1 3.1 2.3 5 .3 3.1-.1 3.6-5.1 6.6-7.7 4.6-20.5 7-14.3 2.7 2.9-2 2.8-2.9-.3-3.2-1.8-.1-2.3.2-1.9 1.3.4.8.1 1.5-.5 1.5-1.7 0-1.3-3.7.4-4.4.8-.3 2.3-.2 3.2.1 1.2.5 1-.1-.7-1.9-2.5-2.6-10.6-5.3-11.5-3.8-.3.4-1.7 1.1-3.1 1.4C77.9 77.6 74 82 74 86c0 2.9.6 3.9 3.1 5.4 1.7 1 3.4 2.8 3.8 3.9 1.1 2.8.4 12.7-1.3 19.7-2.2 8.5-2.9 15-1.9 15 2.2 0 9.3 7.8 9.3 10.2 0 1.3.7 3.3 1.6 4.4 1.5 1.9 1.6 1.9.8-.1-1-3-1.3-7.5-.4-7.5 1.7 0 3.3 3.2 3.4 6.8.1 3.3-.2 3.7-2.1 3.5-2.6-.3-2.8.4-.9 3 1.1 1.4 1.1 2.5.3 4.6-.6 1.6-.7 3.6-.2 4.7.6 1.5 1 .9 1.6-2.8.4-2.6 1.8-7.1 3.2-10 3-6.6 2.3-8.9-2.9-10.4l-3.9-1.1 4.2-1.8c2.9-1.1 4.1-2.2 3.8-3.3-.5-2.8-1.4-13.1-2.1-23.2-.3-5.2-.7-9.7-.9-10-1.1-1.7 1.5-3.2 4.4-2.5 1.7.4 2.9 1 2.6 1.5-.3.4.1 1 .8 1.2.6.3 15.2.5 32.4.6 26.3 0 31.1-.2 30.6-1.4-.3-.8.1-1.4 1-1.4s2.3-.3 3.2-.7c1.6-.6 1.7.4 1 11.8-1.5 23.3-1.4 24 2 26.3 2.4 1.7 3 2.8 2.9 5.6 0 1.9-.4 4.6-.8 6-.7 2.4-.6 2.4.8.6.9-1.1 1.6-3.5 1.6-5.3 0-1.8.3-3.3.8-3.3.4-.1 2.6-1.8 5-4l4.3-3.9-2-9.3c-2.6-12.3-3.4-22.8-1.8-24.8.6-.8 2.4-2.3 3.9-3.3 5.8-3.7 1.2-12.7-7.8-15.5-4.4-1.3-10.3.2-12.7 3.3-1.7 2.4-1.7 2.4 1 2.2 1.9-.1 2.8.3 3.1 1.5.2 1-.2 1.8-.8 1.8-.6 0-.9-.4-.5-1 .3-.5-.7-.8-2.4-.7l-3 .2 2.7 2.3 2.7 2.3-5.2-.4c-3-.2-7.6-1.6-11-3.3-5.4-2.7-5.8-3.2-6.1-6.7-.3-2.9.2-4.2 1.9-5.6 1.5-1.2 2.2-2.9 2.3-5.4.1-2.1.4-3.7.8-3.7.5 0 .8-.4.8-.9s-1.2-.8-2.7-.7c-2 .2-2.9 1-3.1 2.5-.2 1.1-.8 2.1-1.3 2.1s-.9.9-.9 2 .5 2 1.1 2c.5 0 .7.5.4 1-.5.8-1.1.7-2.1-.1-1.1-.9-1.8-.9-2.6-.1-.9.9-.8 1.2.4 1.2.9 0 2 .5 2.4 1.1 1 1.7-3.9-.1-5.4-2-.7-.9-1.1-1.2-1-.6.3 1.1-.4 1.5-2.8 1.5-.8 0-1.2-.5-.9-1 .4-.6 1.1-.8 1.6-.5.5.4.9.1.9-.5 0-.7-.6-1-1.4-.7-.7.3-1.9 0-2.5-.6-.8-.8-1.1-.8-1.1.2 0 .8-.7 1-2 .6-1.2-.4-2-.2-2 .5 0 .6.5.8 1.2.4.8-.5.9-.2.5 1-.6 1.4-.4 1.5 1.6.5 2-1.1 2.1-1.1.8.4-1.2 1.5-1.1 1.7.5 1.8 1.4 0 1.5.2.4.6-.8.3-3.3 1.4-5.4 2.5-3.1 1.5-4.1 1.7-4.7.6-.8-1.2-1.3-.4-1 1.5.1.5-.3.6-.9.2-.5-.3-1-2-1-3.6 0-3.3 3.5-5.5 5.7-3.7.8.7 1.1.4 1-1.1-.1-2-1.7-2.4-2.9-.6-.4.5-.6 0-.6-1.2.1-1.1.7-1.9 1.3-1.6 1.5.5 1.6-5.7.2-7.5-1.4-1.7-2.5-1.5-3.7.9zm3.3 2.6c-.4 1-.9 1.1-1.6.4-.5-.5-.7-1.8-.3-2.8.6-1.4.9-1.5 1.6-.4.4.8.6 2.1.3 2.8zm-6.6 1.8c.6 1.4.7 2.3.2 1.9-.5-.3-.9.1-.9.8 0 2-2-1.3-2-3.5 0-2.5 1.3-2.1 2.7.8zm32.3-.1c0 1.4-.4 2.8-1 3.1-.6.4-1-.7-1-2.4s.5-3.1 1-3.1c.6 0 1 1.1 1 2.4zm-7.7 9.3c.3.5-.6.9-1.9.9-1.3.1-2.1-.2-1.8-.7.6-1.1 3.1-1.2 3.7-.2zM129.5 76c-.3.5-1.2 1-1.8 1-.7 0-.6-.4.3-1 1.9-1.2 2.3-1.2 1.5 0zm-38.3 1.3 3.6 1.3-2.3 2.2c-1.2 1.2-3 2.2-3.8 2.2-.8 0-1.7.6-2 1.4-.3.7-2.7 1.7-5.4 2.1-2.6.4-4.2 1-3.5 1.2 1.7.6 1.5 2.3-.3 2.3-1.6 0-1.9-.9-1.5-5 .2-3 3.5-6.3 6.4-6.5 1.1-.1 2.2-.7 2.4-1.3.5-1.5 1.8-1.5 6.4.1zm51.2.8c.8.8.6 1-1 .5-1.2-.4-4.2-1.1-6.5-1.6l-4.4-.9 5.4.4c3 .2 5.9.9 6.5 1.6zm35.3-.6c.8.8 1.9 1.3 2.4 1 .5-.4 2 .6 3.3 2.2 3 3.5 3.1 8.6.1 9.1-1.6.3-1.8.1-.7-.9 1.9-2 1.5-2.4-2.5-2.6-2.1-.1-4.3-.9-4.9-1.7-.6-.9-1.6-1.6-2.1-1.6-.6 0-2.1-1-3.5-2.3l-2.5-2.4 3.1-1c4.5-1.5 5.6-1.5 7.3.2zm-25.2 8.3c2.8 1.1 4.9 2.5 4.8 3.1-.4 1.4 4.4 1.4 5.2.1.4-.6 1.6-.8 2.8-.4 1.2.4 3.1.8 4.2.9 3.3.4 3.5.5 3.5 1.2 0 1-8 1.6-23.1 1.7-11.1.1-11.7 0-16-2.8-2.4-1.6-5.4-3.7-6.5-4.8-2.2-1.9-2.2-1.9-4.9.8s-2.1 2.9 2.8.9c2.8-1.2 2 1.3-1.1 2.9-4.7 2.4-14.7 3.9-21.4 3.1-3.5-.3-8-.7-10-.7-4.7 0-4.1-1.3.9-2.2 2.1-.3 5.2-.8 6.8-1.1 1.7-.3 6.2-2.1 10.2-4.1 8-4 13.5-4.4 7.1-.5-2.1 1.3-3.8 2.4-3.8 2.6 0 .8 4.1-.9 5.1-2.1.6-.8 2-1.4 3-1.4 1.1 0 1.9-.5 1.9-1.1 0-.6 1.5-.1 3.3 1 5.7 3.8 12.1 6.8 15.7 7.5l3.5.6-3.8-1.5c-5.3-2-13.7-6.7-13.7-7.6 0-1 4.2.1 6 1.6 2.3 1.9 10.1 5.7 10.7 5.2.2-.3-1.8-1.7-4.6-3.3-2.8-1.5-5.1-3.1-5.1-3.6 0-1.4 2.1-.9 5.3 1.6 1.8 1.3 5.4 3.1 8.1 4 7.5 2.4 7.9 1.8.7-1-7.7-2.9-9.8-4.4-7.9-5.5.8-.5 2.1-.1 3.3 1.1 1.1 1 4.3 2.8 7 3.8zm-60.5.6c0 1.4-9.8 6.2-10.7 5.2-.3-.3.5-1 1.8-1.5s3.8-1.9 5.4-3c3.6-2.5 3.5-2.5 3.5-.7zm83.6 1.7c2.5 1.7 4.3 3.3 4 3.6-.3.3-1.7-.4-3.3-1.4-1.5-1.1-3.6-2.3-4.5-2.6-1.6-.6-2.6-2.7-1.2-2.7.3 0 2.6 1.4 5 3.1zm-88 5.8c-1.1 1.7-2.3 9.1-1.6 9.1.5 0 1-1 1.2-2.2.2-1.3 1.1-2.4 2.2-2.6 1.8-.4 1.9-.3.3 1.3-.9.9-1.7 2.5-1.7 3.5 0 1.1-.9 4.3-2 7.1-1.2 2.9-1.7 5.5-1.3 5.8.4.3.8 1.2.8 1.8 0 .7.4 1.2 1 1 .5-.1 1-2.2 1.1-4.7 0-2.5.6-5.5 1.2-6.7.7-1.2 1.2-3.4 1.2-5 0-2.2.2-2.5 1-1.3.5.8 1 4.2 1 7.5.1 3.3.5 9.1.9 13 1 8.5.6 10.2-1.9 8-1.2-1-3.1-1.4-6.6-1.1-2.7.2-5.2.2-5.5 0-.3-.2.2-3.4 1.2-7.1.9-3.7 2-9.4 2.3-12.6.4-3.2.9-6.4 1.2-7.2.3-.7.1-1.6-.5-1.9-1.6-1-.1-3.6 1.6-2.9 1.1.4 1.4.3.9-.6-1-1.6.1-4.4 1.4-3.6.6.4.8 1 .6 1.4zm88.7-.5c.3.8-.2 2-1 2.8-1.5 1.1-1.6 1.1-1-.5.3-.9.2-1.7-.4-1.7-.6 0-.7-.5-.4-1 .9-1.4 2.2-1.2 2.8.4zm2.5 7.8c.1 2.9.9 9.1 1.8 13.8.9 4.7 1.8 9.7 2.1 11.2l.5 2.6-6-.4c-5-.4-6.1-.2-6.6 1.3-.6 1.5-.8 1.5-1.6.3-.5-.8-.8-2.2-.5-3 .2-.8.7-6.9 1-13.4.3-7 1-12.4 1.6-13 .8-.8 1-.7.7.4-.3.8.1 3 .8 4.9.8 1.8 1.4 5.2 1.4 7.5 0 2.2.5 4.8 1 5.6.8 1.2 1 1 1-1s.2-2.2 1-1c1.9 3 1.1-2.9-1-7-1.1-2.2-2-5-2-6.2 0-1.3-.7-3.4-1.6-4.6-.9-1.3-1.1-2.2-.4-2.2.6 0 1.7 1.4 2.4 3 1.2 2.9 3 3.3 1.9.4-.6-1.7.3-4.4 1.5-4.4.5 0 .9 2.4 1 5.2z"/><path d="M82.2 80.9c-1 .6-1 1 .1 2 1.2.9 1.6.8 2-.3.7-1.9-.4-2.7-2.1-1.7zm95.4-.2c-1.1 1.1-.6 2.3.8 2.3.8 0 1.7-.4 2-.9.7-1-1.9-2.3-2.8-1.4zM147 90c0 .6.5.8 1 .5.6-.3 1-.3 1 .2 0 .4 1.9.9 4.3 1 3.1.2 3.8 0 2.6-.7-2.7-1.6-8.9-2.3-8.9-1zm-26.2-17.3c.6.2.9 1 .6 1.5-.5.7-.2.8.6.3 1-.6 1.2-.4.7.8-.4 1-.2 1.4.7 1.1.7-.3 1.3-1.1 1.3-1.9 0-.8-.4-1.2-.9-.9-.4.3-.8 0-.8-.5 0-.6-.8-1.1-1.7-1-1.1 0-1.3.3-.5.6zm-25.1 28c-.8 1.7 0 15 1.2 18.4 1.7 5.4 2.1 7.8 2.2 14.9 0 7.5.2 7-3.6 18-3.6 10.7-3.8 18.4-.5 25.4 2.8 5.9 9.5 11 16.5 12.6 8 1.9 12.5 3.3 12.5 3.9 0 .3-3.4.5-7.6.4-4.1-.2-7.3.1-7 .5.3.4 4.2.8 8.8.7 5.7-.1 9 .3 10.6 1.3 2 1.3 2.5 1.3 4-.1 1.1-1 2.7-1.4 4-1 1.3.3 2.2.1 2.2-.6s-.4-.9-1-.6c-.5.3-1 .2-1-.4 0-.6 2.6-1.7 5.8-2.6 3.1-.9 7.3-2 9.3-2.5 5.1-1.4 9.9-4.9 13.3-9.7 2.4-3.5 3-5.5 3.4-11.6.4-6.4 0-8.6-2.8-17.1-4.4-13-4.4-19.9-.3-34.1.4-1.7.8-5.9.8-9.5v-6.5l-35.2-.3c-19.3-.1-35.3.1-35.6.5zm66.8 17.4c-1.3 3.9-3.2 15.8-2.9 18.1.6 6.2 1.5 9.8 3.2 13.9 5.2 12.2 4.3 22.9-2.6 30.3-3 3.2-11.6 7.6-14.9 7.6-1.2 0-5.1 1.5-8.6 3.4l-6.5 3.3-3.2-2c-1.7-1.1-6.3-2.8-10.1-3.9-20-5.3-25.7-17.7-17.9-38.8 2.7-7.2 3.1-9.6 2.9-16-.2-5.4-2.2-17.5-2.9-17.5h32c29.1 0 31.9.1 31.5 1.6z"/><path d="M114.5 122.1c-6.1 1.7-9.5 6.7-9.5 14 0 11.4 9.9 19.7 18.5 15.6 3.4-1.6 5.4-5.2 3.8-6.8-1.7-1.7-5.9-1.9-7.8-.5-1.9 1.4-1.3 3.6 1.1 3.6 1.9 0 1.8 1.6-.2 2.4-2.2.8-2.1.9-4.3-1.5-1.1-1.2-2.3-4.2-2.7-6.5-.3-2.4-1.1-4.4-1.8-4.4-.6 0-.4-.5.4-1s2.3-.7 3.3-.5c.9.3 2.6.8 3.7 1.1 1.4.4 2 .1 2-1 0-.9.7-1.6 1.5-1.6s1.5-.4 1.5-.9c0-.4-1.9-.5-4.2 0-6.9 1.3-8.8 1.1-8.8-.9 0-1 .6-2.4 1.2-3 1-1 1-1.4 0-2.1-2-1.2.9-3.2 5.6-3.8 4-.5 6.8 1.2 3.8 2.3-2.4.9-1.9 3.1.9 3.8 2.7.7 6.5-.8 6.5-2.5 0-2.3-2.1-4.8-5.1-5.8-3.7-1.3-5.2-1.3-9.4 0zm23.5-.4c-2.7 1-6 4.6-6 6.5 0 2.3 2.2 3.2 5.5 2.4 2.9-.7 3.2-2.4.8-4.2-1.7-1.2-1.7-1.3 0-1.9.9-.4 2.4-.5 3.2-.1 1.4.5 1.4 1-.1 4.3-2.2 5.1-3 8.8-1.7 8 .6-.4 1.3.2 1.6 1.3.7 2.6 4.4 3.9 7.9 2.9 3.3-.9 3.7.5 1.3 5-1.5 3-3.3 4.1-6.6 4.1-2.4 0-2.4-.9-.1-2.6 1.6-1.3 1.6-1.5-.1-2.8-3.7-2.9-9.7.7-7.6 4.5 2.5 4.8 11.1 5 15.9.4 3.7-3.6 4.7-8.2 3.6-16.6-.8-6-.7-7.1.8-8.8 2.1-2.3.7-3.6-2.8-2.7-2.6.6-3.6 3.1-3.6 9.3 0 4.9-2.8 7.5-5.1 4.7-1-1.2-.9-2.4.6-6.6 1.8-5 1.8-5.1 0-6.5-1.9-1.3-4.8-1.6-7.5-.6zm-28 33.1c-3.8.6-4.5 1.9-1.5 2.6 2.1.5 2.6 1.2 2.2 2.7-.6 2.2 1.6 4.9 4 4.9.9 0 3.1-1.1 4.9-2.5 1.8-1.4 3.5-2.5 3.8-2.5.3 0 .4 2.6.3 5.7-.2 5.2-.4 5.8-2.4 5.9-2.7.1-5.3 2.1-5.3 4 0 1.1 2.9 1.4 14.5 1.4s14.5-.3 14.5-1.4c0-2-2.6-3.9-5.5-3.9-2.4 0-2.5-.2-2.5-5.8V160l4.9 2.7c4.1 2.4 5.1 2.6 6.5 1.4.9-.7 1.6-2.4 1.6-3.7 0-1.4.8-2.5 2.1-2.9 1.6-.5 1.8-1 1-1.8-1.1-1.1-36.9-1.9-43.1-.9zm37.6 4.3c-.2 4.2-1.1 4.4-6.2 1-3.2-2-5.1-2.8-5.9-2.1-.9.7-1.3 9-.6 14.5 0 .6 1.5 1.2 3.3 1.3 1.8.2 3.4.5 3.7.7.2.3-4.9.4-11.5.4-6.5-.1-10.5-.4-8.9-.6 1.7-.3 3.3-.8 3.8-1.2.6-.6 1.1-9.7.8-13.7-.2-2.4-3.1-2.2-6.8.6-4.6 3.6-6.5 3.8-6.2.7.2-1.2 0-2.7-.3-3.3-.5-.8 4.4-1.1 17.1-1h17.8l-.1 2.7zm-26.5 20.8c-.8.5-.9 1.1-.3 1.5.6.4.9 1.5.7 2.6-.2 1.1 0 2.2.6 2.5.5.4.9-1.2.9-3.4 0-2.3-.1-4.1-.2-4.1-.2 0-.9.4-1.7.9zm4.2.7c-.4 1.1.1 2.2 1.2 3 1.8 1.4 1.8 1.4 0 1.4-1.4 0-1.6.3-.7 1.2 1.7 1.7 4.4-1 4-4.1-.4-3-3.5-4.1-4.5-1.5zm3.1 1.5c-.3.5-1 .7-1.5.3-.5-.3-.7-1-.3-1.5.3-.5 1-.7 1.5-.3.5.3.7 1 .3 1.5zm3.3-2.4c-1.4 1.3-.6 3.4 1.6 4.3l2.2.9h-2.4c-1.7.1-2.2.4-1.5 1.1 2 2 4.4 0 4.4-3.6 0-2.6-.4-3.4-1.8-3.4-1 0-2.2.3-2.5.7zm2.8 1.2c.3.5.1 1.2-.5 1.6-.5.3-1-.1-1-.9 0-1.8.6-2.1 1.5-.7zm4.8-1.2c-.8.3-1.1 1.4-.7 3.1 1.1 4.6 2.4 4.8 2.4.4 0-2.3-.1-4.2-.2-4.1-.2 0-.9.3-1.5.6zm56.7-77.6c0 .2.6 2.2 1.4 4.3 1.2 3.6 1.2 4.5-.6 9.3l-2.1 5.3 2.5 4.9 2.4 4.9-4.4-3.9c-2.5-2.1-4.8-3.9-5.1-3.9-.3 0-.7 2.3-.9 5.1-.1 4.1.5 6.8 3.3 12.9 3.9 8.7 4.3 11.5 1.7 12.9-1.5.8-1.7.5-1.8-2-.2-3.2-2.9-6.9-5.1-6.9-1.7 0-1.7.9.2 3s3 8.2 2 10.7c-.5 1.3-1.3-.1-2.7-5.2-2.3-8.4-3.4-9.8-4.3-5.5-.4 1.7-2.5 4.9-4.8 7.1-3.9 3.8-4.2 4.3-4 9.2.6 18.9.5 20.3-1.1 23.9-.9 2.1-3 5.3-4.7 7.2l-3 3.5 6.3-2.7c5.3-2.2 7.6-2.6 14.6-2.4 7.6.1 8.6-.1 10.8-2.3 3-3 3-4.1.2-5.6-5-2.7-9-2.1-14.7 2.2-2.9 2.2-5.5 3.8-5.8 3.6-.2-.3 1.3-2.3 3.5-4.6 3-3.2 4.7-4.1 7.3-4.2 9.5-.2 12.9-1.9 17.3-8.9 2.1-3.2 4.4-6.1 5.2-6.4 3.4-1.3.9-2.1-5.6-1.8-3.8.2-7 0-7-.5s1.2-.8 2.8-.7c4.1.2 8-1.5 8.8-3.8 1.4-4.4-4.1-4.4-6.5.1-.9 1.5-3.7 2-7 1.2-.2-.1 3.6-2.2 8.5-4.7s9.7-5.3 10.7-6.3c2.7-2.6 2.7-7.1.2-13.1-2.3-5.4-2.3-5.4-3.5-3-.6 1.4-2.6 3.5-4.4 4.6-2.6 1.8-3.6 3.4-5 8.7-1 3.6-2.4 7.4-3.2 8.4-1.3 1.6-1.3 1.5-.3-1.2.6-1.7 2-7.1 3-12 2.3-10.5 4-13.5 7.4-13.5 1.8 0 2.3-.4 1.9-1.5-.8-2-3.3-1.9-5.7.2-2 1.8-2 1.8-.3-1.6 1-1.8 2-5.6 2.3-8.5.4-4.2.1-5.7-1.9-8.5-2-2.9-8.8-9.1-8.8-8zm5.9 13.5c-.7 2.4-1.7 4.4-2.2 4.4-.5 0-.6-1-.2-2.3.4-1.2 1-4 1.2-6.1.4-3.2.7-3.6 1.5-2.2.7 1.2.6 3.2-.3 6.2zm1.8 4.2c-1 1-1.7 2.7-1.8 3.8 0 1.9-.1 1.9-.8 0-.7-1.9 1.3-5.3 3.3-5.5.5-.1.2.7-.7 1.7zm-6.1 16.9c.3 1.9-1.7 1.6-3.2-.5-1.9-2.4-1.7-4 .2-1.6 1.5 1.9 1.6 1.9.9-.1-1.6-4.4-1.5-5.8.1-2.5.9 1.9 1.8 4.1 2 4.7zm1.7 3.3c-.7 2.6-2.5 3.8-2.1 1.4.2-1.5 1.5-3.3 2.5-3.4 0 0-.1.9-.4 2zm11.8 4.5c-1.7 2.9-1.8 3.5-.5 3.5.8 0 1.7-.7 2-1.5.4-.8 1.1-1.5 1.7-1.5 1.5 0-2.3 3.9-4.6 4.6-1.6.5-1.7.8-.6 1.5s1.1.9-.3.9c-.9 0-3.1 1.2-4.9 2.7-3 2.6-3.1 2.6-1.8.4.8-1.3 1.9-3.2 2.5-4.2.6-1 1.3-1.6 1.6-1.3.3.2 1.8-1.6 3.2-4.1 1.5-2.5 2.9-4.5 3.2-4.5.3 0-.3 1.6-1.5 3.5zm-27.5 13.6c-.5 3.4-.4 4 .8 3.6 1-.4.7.5-.7 2.7-1.2 1.9-2.4 3.2-2.6 3-1-.9-.9-3.8 0-5.6.7-1.2.6-2.5-.2-4.1-1.1-2-1.1-2.1.4-.8 1.5 1.2 1.7 1.1 1.7-.8 0-1.1.3-2.1.6-2.1.4 0 .4 1.9 0 4.1zm8.4 1.8c-.5 1.1-1.4 3.1-2 4.6-.9 2.4-.8 2.5 1.3 1.5l2.2-1.1-2.2 1.7c-1.3.9-4.8 5.4-7.8 10-3.1 4.6-6.1 8.6-6.7 9-1.3.8-1.2.7 5.3-9.4 2.6-4 5.1-8.7 5.4-10.5.4-1.7 1.6-4.2 2.8-5.5 2.5-2.7 3.1-2.8 1.7-.3zm-11 8.6c.6.4 1.9.1 2.8-.7 1.6-1.2 1.6-1.1.2.7-.8 1.1-1.6 2.2-1.7 2.4-.1.2-.9-.2-1.8-.9s-1.5-.8-1.5-.2c0 .6.5 1.2 1 1.4 1.1.3-.6 6.8-1.8 6.8-.4 0-.7-3.6-.7-8.1 0-7.3.1-7.8 1.2-5.1.7 1.7 1.7 3.3 2.3 3.7zm15.6 2.4c-.9 1.6-2.2 3.1-3.1 3.4-2.7 1.1-1.7 2.8 1.3 2.2 2.3-.5 2.4-.5.9.5-1 .7-2.7 1-3.8.7-1-.3-2.1-.1-2.5.4-.3.5-1.5 1.4-2.7 2-1.6.8-1.3.2 1.1-2.1 1.7-1.7 3.2-3.6 3.2-4.1 0-.6.4-.8.9-.4.5.3 1.9-.8 3.1-2.5 2.7-3.8 3.5-3.9 1.6-.1zm7.4-1.4c0 .8-6.2 3.7-6.7 3.1-.3-.3 1-1.2 2.8-2 4.2-1.8 3.9-1.7 3.9-1.1zm-15.3 19.1c-.3.3-1.2.4-1.9.1-.8-.3-.5-.6.6-.6 1.1-.1 1.7.2 1.3.5z"/><path d="M181.5 163c-.3.5-.1 1 .4 1 .6 0 1.1-.5 1.1-1 0-.6-.2-1-.4-1-.3 0-.8.4-1.1 1zm-121-55.9c-6.8 6-7.7 11.3-3.8 20.6 1.5 3.7 1.5 3.8-.4 2-2.4-2.1-5.3-2.2-5.3-.2 0 .8.8 1.5 1.8 1.5 3.3 0 5.7 3.9 6.8 10.9.3 2 1.6 6.6 2.8 10.3 1.2 3.8 1.9 6.8 1.5 6.8-.8 0-3.3-6.4-4.9-12.6-.6-2.7-1.8-4.5-3.6-5.4-1.4-.8-3.5-2.7-4.6-4.3l-2-2.9-1.8 4c-3.3 7.3-3.4 9.6-.5 13 1.4 1.7 6.4 5 11.1 7.2 4.6 2.3 8.4 4.3 8.4 4.6 0 .2-1.6.4-3.5.4-2.4 0-3.5-.5-3.5-1.5 0-1.4-2.9-3.5-4.9-3.5-1.9 0-1.2 4.9.8 6 1.1.5 3.9 1.1 6.3 1.1 3.9.1 4 .2 1.3.8-1.6.4-5.2.6-7.8.5l-4.9-.2 2.9 2.8c1.6 1.6 3.8 4.5 4.8 6.5 2.6 4.6 8.4 7.5 15.4 7.5 4.8 0 5.7.3 8.7 3.6 3.3 3.4 4.2 5.4 2.6 5.4-.4 0-1.3-.9-2-2-.7-1.2-1.7-1.8-2.2-1.5-.6.3-1 .1-1-.5 0-1.6-6.3-4-9.1-3.5-3.4.7-7.9 2.6-7.9 3.4 0 .4 1.3 2 3 3.6 2.8 2.6 3.3 2.8 9.4 2.2 5.2-.5 7.7-.2 12.3 1.4 3.2 1.2 7.2 2.2 8.8 2.4 7.7.9 12.1 1.9 13.4 3.2.7.8 1.6 1.1 1.9.8.4-.3 0-1.1-.8-1.6-1.3-.9-1.2-1 .2-.6 2.7.9 2.9-.4.4-2.4-1.3-1-2.9-3.1-3.5-4.7-.9-2.1-2.7-3.5-6.5-5.1-2.9-1.2-6.2-3-7.4-4.1-2.7-2.6-3.3-2.5-2.8.2.3 1.3.5 3.3.5 4.5.1 1.2 1.3 3.6 2.8 5.4 2.3 2.7 2.4 3 .6 2.1-4-2.2-9-16.2-7.3-20.8 2.8-7.4 1.3-15.9-3.3-18.9-2.3-1.5-3.2-3.1-5.2-9-.5-1.6-1-.9-2.6 3.5-1 3-1.9 6.5-1.9 7.7 0 3.1-1.8 2.9-2.6-.2-.4-1.6.1-3.9 1.5-6.6 1.2-2.3 1.9-4.4 1.6-4.7-1.1-1.1-3.9 1.4-4.9 4.5-1.4 4.1-2.5 5.1-3.6 3.3-1.2-1.9-.4-5.1 3.1-12.4 2.7-5.6 3.3-8.7 3-14.9-.1-2.3-.4-2.6-1.8-1.8-1 .5-3.3 2.3-5 4-3.8 3.6-4.1 3.4-1.3-1.1 2.3-3.9 2.5-8.5.5-11.2-1.9-2.6-1.9-7.6.1-10.4 2.2-3.2 0-2.7-4.1.9zm-.2 4.5c-.3.8 0 3.2.7 5.3 1 3.2 1 4.3-.3 6.7-1.5 2.6-1.6 2.7-1.7.7 0-1.2-.4-2.5-1-2.8-.5-.3-1-1.2-1-1.8 0-.7.7-.3 1.5.7 2.3 3 2.9 1.1 1.1-3.3-1.5-3.9-1.3-7.1.5-7.1.4 0 .6.7.2 1.6zm7 20.4c-.3 1.1-.9 2.3-1.4 2.6-.5.3-.9 1-.9 1.6 0 .6 1 .3 2.1-.8 2.2-1.9 2.2-1.9.8.3-.8 1.3-1.9 2.3-2.6 2.3-.7 0-1.2.3-1.2.7.1.5.1 1.9-.1 3.3-.1 2.3-.2 2.3-.9.5-.5-1.1-.4-2.8.1-3.8s.7-2.5.4-3.3c-.3-.9-.1-1.2.4-.9.6.3 1.4-.5 2-1.9 1.1-3.1 2-3.5 1.3-.6zM50 143.1c0 1.3 4.6 8 5.1 7.5.2-.3 1.5 1.1 2.7 3l2.3 3.5-3.3-2.3c-1.8-1.3-3.7-2.8-4.3-3.4-.5-.6-2.3-1.8-3.8-2.8-1.6-1-2.6-2-2.3-2.3.3-.4 1.4.1 2.4 1 2.6 2.4 3.7 2.1 2-.6-2-3.1-3-5.9-1.8-5.2.6.3 1 1.1 1 1.6zm5.3 3.9c.3 1.1.1 1.8-.4 1.4-.5-.3-.9-1.2-.9-2 0-2 .7-1.7 1.3.6zm24.8 10.9c.7-1 .8-.7.4 1.1-.2 1.4-.1 4.1.3 6l.8 3.5 1.2-3.3c1.5-4.2 2.2-4.1 1.2.3-.4 1.9-.6 5.5-.4 8 .2 2.8 0 4.4-.6 4-.6-.3-1-1.3-1-2 0-.8-1.5-3.1-3.2-5.2-1.8-2.1-2.3-2.9-1-1.9 1.8 1.6 2.2 1.6 2.2.4 0-.8-.9-2.7-2.1-4.2-1.1-1.4-1.6-2.6-1-2.6.6 0 1.1.4 1.1 1 0 .5.4 1 .9 1s.3-1.7-.4-3.7c-.7-2.1-1-4.2-.7-4.8.4-.5.9.1 1 1.4.3 1.9.6 2.1 1.3 1zm-7.4 4.4c.7.4 1.3 1.7 1.3 2.8 0 2.6 2.3 7.1 6.7 13.1 1.9 2.7 3.1 4.8 2.6 4.8-.4 0-2.4-2.3-4.3-5.1-1.9-2.9-5-6.7-6.8-8.6-1.8-2-2.5-3.3-1.7-2.9 1.8.7 1.9-.2 0-3.4-.8-1.4-1.4-3.2-1.4-4 0-1 .3-.9 1.1.5.6 1.1 1.7 2.4 2.5 2.8zm-8.8 10.4c.2.1-.3.3-1.1.3-.9 0-2.6-.9-3.9-2l-2.4-2 3.5 1.7c1.9.9 3.7 1.8 3.9 2zm5.6 1.4c.6 0 2.4 1.7 4 3.7 2.7 3.3 2.8 3.5.5 1.9-1.3-.9-3.7-1.7-5.1-1.7-3.5 0-5.9-.9-5.9-2.3 0-.7.4-.7 1.2.1.7.7 2.3 1.2 3.7 1.2h2.5l-3.2-2.9c-1.7-1.7-3.2-3.5-3.2-4.2 0-.7 1 0 2.3 1.4 1.2 1.5 2.7 2.7 3.2 2.8zm30.2 16.6c2.3 3.5 2.3 3.6-.1 2.7-.9-.3-1.4-1-1.1-1.4.3-.5-.9-2.3-2.7-3.9-2.9-2.7-3-3-.8-1.9 1.4.6 3.5 2.6 4.7 4.5zm3.1.8c-.3.3-.9-.2-1.2-1.2-.6-1.4-.5-1.5.5-.6.7.7 1 1.5.7 1.8zm4.2 6c0 .3-.9 0-2-.7s-2-1.8-2-2.5c0-.8.8-.5 2 .7 1.1 1.1 2 2.2 2 2.5zm60.1-60.6c-2.3 1.5-1.6 9 1.4 14.6 1.4 2.8 2.4 6 2.2 7.2-.2 1.2 0 2 .4 1.7 1.2-.7 1.1-5.5 0-7.3-.6-.9-.6-2.2.1-3.4 1.2-2.3.3-3.4-1.6-1.8-1.1 1-1.5.9-1.8-.6-.5-2.7 1.5-9.3 2.8-9.3.7 0 1.6-.5 1.9-1 .8-1.2-3.5-1.3-5.4-.1zm-.1 46.8c-2.1 2.1-2.9 3.3-1.9 3.3.8 0 1.9-.3 2.5-.8.5-.4-.4.5-2 1.9-1.7 1.5-2.6 3.1-2.2 3.7.4.7.3 1.2-.2 1.2s-2.6 1.1-4.7 2.5c-2 1.5-4 2.4-4.2 2.1-.3-.2.4-1.1 1.6-1.8 1.2-.7 2.1-2 2.1-2.8 0-.8.5-2.2 1-3 .8-1.1.9-.8.4 1.3-.9 3.7 1.8 2.7 3.3-1.3 1.2-3.3.8-4.2-1.6-3-.9.5-2.4 1.1-3.4 1.4-1 .3-2.2 1.8-2.8 3.4-.9 2.7-1 2.7-7.9 2.4-3.9-.2-7 0-7 .5s2.2.9 5 .8c6-.1 7.2.4 5.6 2.7-.9 1.3-3 1.8-7.9 1.9-10 .3-8.1 1.4 2.3 1.4 6.7 0 9-.3 9-1.3 0-.7.5-1 1-.7.6.4.8.9.6 1.3-.6 1 13.2.8 14.1-.2.5-.4-.5-.7-2.2-.6-1.6.1-5 .1-7.5 0l-4.5-.2 4-.9c7.3-1.7 12.3-8.8 11.3-16l-.3-2.4-3.5 3.2z"/><path d="M71.4 204.7c-9.5 13.3-9.2 12.3-4.2 11.8 2.4-.2 9.5-.6 15.8-1 6.3-.3 14.9-.8 19-1.1 20.7-1.3 22-1.3 22 .2 0 1.1 1.5 1.4 6.5 1.4 5.4 0 6.3-.2 5.8-1.6-.5-1.3.3-1.5 6.3-1 3.8.3 11 .8 15.9 1.1 16.9.9 29 1.6 33.8 2 2.6.3 4.7.2 4.7-.1 0-1-15.4-21.4-16.2-21.4-1.5 0-.8 2.5 1.5 6 1.3 1.9 3.4 5.2 4.6 7.3l2.3 3.8-2.3-.5c-1.3-.3-6.9-1.5-12.4-2.6-15.5-3.3-32.1-2.7-42.1 1.5-1.8.7-3.6 1-3.9.6-.2-.5-3.1-1.6-6.4-2.5-10.7-3-29.9-2-45.1 2.4-6.1 1.7-6.2 1.2-1-7.1 2.7-4.4 5-8.2 5-8.5 0-.2-.6-.4-1.3-.4-.8 0-4.5 4.4-8.3 9.7z"/><path d="M82 200.9c0 1 2.6.9 3.6-.2.4-.4-.2-.7-1.4-.7s-2.2.4-2.2.9zm5-.2c0 1 5.7.9 6.7 0 .3-.4-1-.7-3-.7s-3.7.3-3.7.7zm8 .4c0 .4 1.6.7 3.5.6 1.9-.1 3.5-.6 3.5-1s-1.6-.7-3.5-.5c-1.9.1-3.5.5-3.5.9zm8-.3c0 .4.9.8 2 .9 1.1.1 2-.2 2-.5 0-.4-.9-.8-2-.9-1.1-.1-2 .2-2 .5zm9.5.2c-.5.8 12.3.5 13.1-.3.3-.3-2.4-.5-6-.5-3.7.1-6.9.4-7.1.8zm58.5 0c0 .5.5 1 1 1 .6 0 1-.5 1-1 0-.6-.4-1-1-1-.5 0-1 .4-1 1zm3-.2c0 .4 1.1.8 2.5.8s2.5-.4 2.5-.8-1.1-.8-2.5-.8-2.5.4-2.5.8z"/></svg>