<?xml version="1.0" standalone="no"?>
<!DOCTYPE svg PUBLIC "-//W3C//DTD SVG 20010904//EN"
 "http://www.w3.org/TR/2001/REC-SVG-20010904/DTD/svg10.dtd">
<svg version="1.0" xmlns="http://www.w3.org/2000/svg"
 width="260.000000pt" height="260.000000pt" viewBox="0 0 260.000000 260.000000"
 preserveAspectRatio="xMidYMid meet">
<metadata>
Created by potrace 1.14, written by Peter Selinger 2001-2017
</metadata>
<g transform="translate(0.000000,260.000000) scale(0.100000,-0.100000)"
fill="#000000" stroke="none">
<path d="M1297 2299 c-4 -15 -11 -20 -21 -16 -18 7 -22 -8 -5 -19 6 -3 9 -15
6 -25 -6 -20 7 -26 19 -8 4 8 9 8 17 0 17 -17 26 -13 20 9 -3 12 1 22 11 26 9
3 14 10 11 15 -3 4 -12 6 -20 2 -9 -3 -15 1 -15 10 0 25 -17 29 -23 6z"/>
<path d="M1091 2263 c-7 -14 -17 -20 -26 -17 -8 4 -15 2 -15 -4 0 -5 7 -13 15
-16 13 -4 14 -10 5 -26 -12 -22 -1 -27 18 -8 8 8 15 8 28 -3 16 -13 17 -12 12
9 -4 15 -2 25 8 29 8 3 14 10 14 15 0 6 -7 7 -15 4 -10 -4 -19 2 -24 16 l-8
22 -12 -21z"/>
<path d="M1490 2254 c0 -11 -6 -15 -20 -11 -24 6 -27 -8 -4 -17 10 -4 13 -13
9 -27 -6 -18 -4 -20 14 -14 12 4 28 2 35 -4 10 -9 12 -6 9 13 -3 13 0 27 6 30
16 11 13 26 -4 20 -8 -4 -17 1 -21 10 -8 21 -24 21 -24 0z"/>
<path d="M912 2153 c-7 -13 -20 -23 -30 -23 -16 -1 -15 -2 1 -14 15 -12 17
-18 7 -36 -11 -20 -10 -21 9 -11 11 6 27 8 37 4 14 -5 16 -3 11 12 -5 11 -1
22 10 31 17 12 17 13 -4 14 -15 0 -23 7 -25 23 l-3 22 -13 -22z"/>
<path d="M1680 2155 c0 -9 -9 -15 -22 -15 -19 0 -20 -1 -5 -18 11 -12 13 -22
6 -35 -11 -19 1 -23 19 -5 8 8 15 8 28 -3 16 -12 17 -12 11 5 -5 12 -1 26 9
37 16 18 16 19 -4 19 -13 0 -22 6 -22 15 0 8 -4 15 -10 15 -5 0 -10 -7 -10
-15z"/>
<path d="M1280 2040 c-15 -11 -19 -20 -11 -24 6 -4 11 -3 11 2 0 17 29 21 44
6 10 -9 17 -11 21 -3 4 5 5 11 4 12 -2 1 -13 7 -25 13 -16 10 -25 8 -44 -6z"/>
<path d="M1290 2013 c-8 -12 -19 -19 -26 -16 -13 5 -25 -40 -14 -58 4 -6 12
-9 18 -5 6 3 13 0 15 -6 3 -8 6 -6 6 5 1 9 -6 17 -14 17 -8 0 -15 7 -15 16 0
8 4 13 9 9 6 -3 15 4 22 17 11 21 12 21 26 2 8 -10 19 -18 24 -16 5 1 9 -5 9
-13 0 -24 -27 -18 -34 8 -5 17 -8 19 -15 8 -11 -17 -3 -43 10 -35 5 3 9 -3 10
-13 0 -10 3 -13 5 -6 3 7 12 9 20 6 12 -5 19 7 15 30 0 4 4 7 10 7 6 0 9 -7 5
-15 -3 -8 0 -15 7 -15 9 0 9 -2 0 -8 -7 -5 -9 -13 -3 -21 6 -11 13 -6 29 20
25 40 26 62 6 79 -12 10 -18 10 -30 0 -8 -7 -12 -16 -9 -21 3 -5 0 -9 -5 -9
-6 0 -11 5 -11 11 0 6 -6 9 -12 7 -7 -3 -20 5 -29 16 l-16 20 -13 -21z m122
-28 c0 -5 -5 -11 -11 -13 -6 -2 -11 4 -11 13 0 9 5 15 11 13 6 -2 11 -8 11
-13z"/>
<path d="M1190 1999 c-7 -11 -8 -28 -4 -37 14 -33 13 -50 -2 -63 -13 -11 -14
-9 -9 12 9 37 -19 84 -50 84 -14 1 -25 -3 -25 -7 0 -4 3 -8 8 -8 4 0 8 -17 9
-38 1 -23 10 -43 22 -53 10 -9 21 -31 23 -50 3 -31 -1 -36 -51 -66 -77 -46
-205 -70 -143 -27 29 20 28 29 -3 32 -18 1 -23 -2 -19 -13 4 -8 1 -15 -5 -15
-17 0 -13 37 4 44 8 3 23 2 32 -1 12 -5 10 1 -7 19 -25 26 -106 53 -115 38 -3
-4 -17 -11 -31 -14 -45 -12 -84 -56 -84 -96 0 -29 6 -39 31 -54 17 -10 34 -28
38 -39 11 -28 4 -127 -13 -197 -22 -85 -29 -150 -19 -150 22 0 93 -78 93 -102
0 -13 7 -33 16 -44 15 -19 16 -19 8 1 -10 30 -13 75 -4 75 17 0 33 -32 34 -68
1 -33 -2 -37 -21 -35 -26 3 -28 -4 -9 -30 11 -14 11 -25 3 -46 -6 -16 -7 -36
-2 -47 6 -15 10 -9 16 28 4 26 18 71 32 100 30 66 23 89 -29 104 l-39 11 42
18 c29 11 41 22 38 33 -5 28 -14 131 -21 232 -3 52 -7 97 -9 100 -11 17 15 32
44 25 17 -4 29 -10 26 -15 -3 -4 1 -10 8 -12 6 -3 152 -5 324 -6 263 0 311 2
306 14 -3 8 1 14 10 14 9 0 23 3 32 7 16 6 17 -4 10 -118 -15 -233 -14 -240
20 -263 24 -17 30 -28 29 -56 0 -19 -4 -46 -8 -60 -7 -24 -6 -24 8 -6 9 11 16
35 16 53 0 18 3 33 8 33 4 1 26 18 50 40 l43 39 -20 93 c-26 123 -34 228 -18
248 6 8 24 23 39 33 58 37 12 127 -78 155 -44 13 -103 -2 -127 -33 -17 -24
-17 -24 10 -22 19 1 28 -3 31 -15 2 -10 -2 -18 -8 -18 -6 0 -9 4 -5 10 3 5 -7
8 -24 7 l-30 -2 27 -23 27 -23 -52 4 c-30 2 -76 16 -110 33 -54 27 -58 32 -61
67 -3 29 2 42 19 56 15 12 22 29 23 54 1 21 4 37 8 37 5 0 8 4 8 9 0 5 -12 8
-27 7 -20 -2 -29 -10 -31 -25 -2 -11 -8 -21 -13 -21 -5 0 -9 -9 -9 -20 0 -11
5 -20 11 -20 5 0 7 -5 4 -10 -5 -8 -11 -7 -21 1 -11 9 -18 9 -26 1 -9 -9 -8
-12 4 -12 9 0 20 -5 24 -11 10 -17 -39 1 -54 20 -7 9 -11 12 -10 6 3 -11 -4
-15 -28 -15 -8 0 -12 5 -9 10 4 6 11 8 16 5 5 -4 9 -1 9 5 0 7 -6 10 -14 7 -7
-3 -19 0 -25 6 -8 8 -11 8 -11 -2 0 -8 -7 -10 -20 -6 -12 4 -20 2 -20 -5 0 -6
5 -8 12 -4 8 5 9 2 5 -10 -6 -14 -4 -15 16 -5 20 11 21 11 8 -4 -12 -15 -11
-17 5 -18 14 0 15 -2 4 -6 -8 -3 -33 -14 -54 -25 -31 -15 -41 -17 -47 -6 -8
12 -13 4 -10 -15 1 -5 -3 -6 -9 -2 -5 3 -10 20 -10 36 0 33 35 55 57 37 8 -7
11 -4 10 11 -1 20 -17 24 -29 6 -4 -5 -6 0 -6 12 1 11 7 19 13 16 15 -5 16 57
2 75 -14 17 -25 15 -37 -9z m33 -26 c-4 -10 -9 -11 -16 -4 -5 5 -7 18 -3 28 6
14 9 15 16 4 4 -8 6 -21 3 -28z m-66 -18 c6 -14 7 -23 2 -19 -5 3 -9 -1 -9 -8
0 -20 -20 13 -20 35 0 25 13 21 27 -8z m323 1 c0 -14 -4 -28 -10 -31 -6 -4
-10 7 -10 24 0 17 5 31 10 31 6 0 10 -11 10 -24z m-77 -93 c3 -5 -6 -9 -19 -9
-13 -1 -21 2 -18 7 6 11 31 12 37 2z m-108 -23 c-3 -5 -12 -10 -18 -10 -7 0
-6 4 3 10 19 12 23 12 15 0z m-383 -13 l36 -13 -23 -22 c-12 -12 -30 -22 -38
-22 -8 0 -17 -6 -20 -14 -3 -7 -27 -17 -54 -21 -26 -4 -42 -10 -35 -12 17 -6
15 -23 -3 -23 -16 0 -19 9 -15 50 2 30 35 63 64 65 11 1 22 7 24 13 5 15 18
15 64 -1z m512 -8 c8 -8 6 -10 -10 -5 -12 4 -42 11 -65 16 l-44 9 54 -4 c30
-2 59 -9 65 -16z m353 6 c8 -8 19 -13 24 -10 5 4 20 -6 33 -22 30 -35 31 -86
1 -91 -16 -3 -18 -1 -7 9 19 20 15 24 -25 26 -21 1 -43 9 -49 17 -6 9 -16 16
-21 16 -6 0 -21 10 -35 23 l-25 24 31 10 c45 15 56 15 73 -2z m-252 -83 c28
-11 49 -25 48 -31 -4 -14 44 -14 52 -1 4 6 16 8 28 4 12 -4 31 -8 42 -9 33 -4
35 -5 35 -12 0 -10 -80 -16 -231 -17 -111 -1 -117 0 -160 28 -24 16 -54 37
-65 48 -22 19 -22 19 -49 -8 -27 -27 -21 -29 28 -9 28 12 20 -13 -11 -29 -47
-24 -147 -39 -214 -31 -35 3 -80 7 -100 7 -47 0 -41 13 9 22 21 3 52 8 68 11
17 3 62 21 102 41 80 40 135 44 71 5 -21 -13 -38 -24 -38 -26 0 -8 41 9 51 21
6 8 20 14 30 14 11 0 19 5 19 11 0 6 15 1 33 -10 57 -38 121 -68 157 -75 l35
-6 -38 15 c-53 20 -137 67 -137 76 0 10 42 -1 60 -16 23 -19 101 -57 107 -52
2 3 -18 17 -46 33 -28 15 -51 31 -51 36 0 14 21 9 53 -16 18 -13 54 -31 81
-40 75 -24 79 -18 7 10 -77 29 -98 44 -79 55 8 5 21 1 33 -11 11 -10 43 -28
70 -38z m-605 -6 c0 -14 -98 -62 -107 -52 -3 3 5 10 18 15 13 5 38 19 54 30
36 25 35 25 35 7z m836 -17 c25 -17 43 -33 40 -36 -3 -3 -17 4 -33 14 -15 11
-36 23 -45 26 -16 6 -26 27 -12 27 3 0 26 -14 50 -31z m-880 -58 c-11 -17 -23
-91 -16 -91 5 0 10 10 12 22 2 13 11 24 22 26 18 4 19 3 3 -13 -9 -9 -17 -25
-17 -35 0 -11 -9 -43 -20 -71 -12 -29 -17 -55 -13 -58 4 -3 8 -12 8 -18 0 -7
4 -12 10 -10 5 1 10 22 11 47 0 25 6 55 12 67 7 12 12 34 12 50 0 22 2 25 10
13 5 -8 10 -42 10 -75 1 -33 5 -91 9 -130 10 -85 6 -102 -19 -80 -12 10 -31
14 -66 11 -27 -2 -52 -2 -55 0 -3 2 2 34 12 71 9 37 20 94 23 126 4 32 9 64
12 72 3 7 1 16 -5 19 -16 10 -1 36 16 29 11 -4 14 -3 9 6 -10 16 1 44 14 36 6
-4 8 -10 6 -14z m887 5 c3 -8 -2 -20 -10 -28 -15 -11 -16 -11 -10 5 3 9 2 17
-4 17 -6 0 -7 5 -4 10 9 14 22 12 28 -4z m25 -78 c1 -29 9 -91 18 -138 9 -47
18 -97 21 -112 l5 -26 -60 4 c-50 4 -61 2 -66 -13 -6 -15 -8 -15 -16 -3 -5 8
-8 22 -5 30 2 8 7 69 10 134 3 70 10 124 16 130 8 8 10 7 7 -4 -3 -8 1 -30 8
-49 8 -18 14 -52 14 -75 0 -22 5 -48 10 -56 8 -12 10 -10 10 10 0 20 2 22 10
10 19 -30 11 29 -10 70 -11 22 -20 50 -20 62 0 13 -7 34 -16 46 -9 13 -11 22
-4 22 6 0 17 -14 24 -30 12 -29 30 -33 19 -4 -6 17 3 44 15 44 5 0 9 -24 10
-52z"/>
<path d="M822 1791 c-10 -6 -10 -10 1 -20 12 -9 16 -8 20 3 7 19 -4 27 -21 17z"/>
<path d="M1776 1793 c-11 -11 -6 -23 8 -23 8 0 17 4 20 9 7 10 -19 23 -28 14z"/>
<path d="M1470 1700 c0 -6 5 -8 10 -5 6 3 10 3 10 -2 0 -4 19 -9 43 -10 31 -2
38 0 26 7 -27 16 -89 23 -89 10z"/>
<path d="M1208 1873 c6 -2 9 -10 6 -15 -5 -7 -2 -8 6 -3 10 6 12 4 7 -8 -4
-10 -2 -14 7 -11 7 3 13 11 13 19 0 8 -4 12 -9 9 -4 -3 -8 0 -8 5 0 6 -8 11
-17 10 -11 0 -13 -3 -5 -6z"/>
<path d="M957 1593 c-8 -17 0 -150 12 -184 17 -54 21 -78 22 -149 0 -75 2 -70
-36 -180 -36 -107 -38 -184 -5 -254 28 -59 95 -110 165 -126 80 -19 125 -33
125 -39 0 -3 -34 -5 -76 -4 -41 2 -73 -1 -70 -5 3 -4 42 -8 88 -7 57 1 90 -3
106 -13 20 -13 25 -13 40 1 11 10 27 14 40 10 13 -3 22 -1 22 6 0 7 -4 9 -10
6 -5 -3 -10 -2 -10 4 0 6 26 17 58 26 31 9 73 20 93 25 51 14 99 49 133 97 24
35 30 55 34 116 4 64 0 86 -28 171 -44 130 -44 199 -3 341 4 17 8 59 8 95 l0
65 -352 3 c-193 1 -353 -1 -356 -5z m668 -174 c-13 -39 -32 -158 -29 -181 6
-62 15 -98 32 -139 52 -122 43 -229 -26 -303 -30 -32 -116 -76 -149 -76 -12 0
-51 -15 -86 -34 l-65 -33 -32 20 c-17 11 -63 28 -101 39 -200 53 -257 177
-179 388 27 72 31 96 29 160 -2 54 -22 175 -29 175 0 0 144 0 320 0 291 0 319
-1 315 -16z"/>
<path d="M1145 1379 c-61 -17 -95 -67 -95 -140 0 -114 99 -197 185 -156 34 16
54 52 38 68 -17 17 -59 19 -78 5 -19 -14 -13 -36 11 -36 19 0 18 -16 -2 -24
-22 -8 -21 -9 -43 15 -11 12 -23 42 -27 65 -3 24 -11 44 -18 44 -6 0 -4 5 4
10 8 5 23 7 33 5 9 -3 26 -8 37 -11 14 -4 20 -1 20 10 0 9 7 16 15 16 8 0 15
4 15 9 0 4 -19 5 -42 0 -69 -13 -88 -11 -88 9 0 10 6 24 12 30 10 10 10 14 0
21 -20 12 9 32 56 38 40 5 68 -12 38 -23 -24 -9 -19 -31 9 -38 27 -7 65 8 65
25 0 23 -21 48 -51 58 -37 13 -52 13 -94 0z"/>
<path d="M1380 1383 c-27 -10 -60 -46 -60 -65 0 -23 22 -32 55 -24 29 7 32 24
8 42 -17 12 -17 13 0 19 9 4 24 5 32 1 14 -5 14 -10 -1 -43 -22 -51 -30 -88
-17 -80 6 4 13 -2 16 -13 7 -26 44 -39 79 -29 33 9 37 -5 13 -50 -15 -30 -33
-41 -66 -41 -24 0 -24 9 -1 26 16 13 16 15 -1 28 -37 29 -97 -7 -76 -45 25
-48 111 -50 159 -4 37 36 47 82 36 166 -8 60 -7 71 8 88 21 23 7 36 -28 27
-26 -6 -36 -31 -36 -93 0 -49 -28 -75 -51 -47 -10 12 -9 24 6 66 18 50 18 51
0 65 -19 13 -48 16 -75 6z"/>
<path d="M1100 1052 c-38 -6 -45 -19 -15 -26 21 -5 26 -12 22 -27 -6 -22 16
-49 40 -49 9 0 31 11 49 25 18 14 35 25 38 25 3 0 4 -26 3 -57 -2 -52 -4 -58
-24 -59 -27 -1 -53 -21 -53 -40 0 -11 29 -14 145 -14 116 0 145 3 145 14 0 20
-26 39 -55 39 -24 0 -25 2 -25 58 l0 59 49 -27 c41 -24 51 -26 65 -14 9 7 16
24 16 37 0 14 8 25 21 29 16 5 18 10 10 18 -11 11 -369 19 -431 9z m376 -43
c-2 -42 -11 -44 -62 -10 -32 20 -51 28 -59 21 -9 -7 -13 -90 -6 -145 0 -6 15
-12 33 -13 18 -2 34 -5 37 -7 2 -3 -49 -4 -115 -4 -65 1 -105 4 -89 6 17 3 33
8 38 12 6 6 11 97 8 137 -2 24 -31 22 -68 -6 -46 -36 -65 -38 -62 -7 2 12 0
27 -3 33 -5 8 44 11 171 10 l178 0 -1 -27z"/>
<path d="M1211 801 c-8 -5 -9 -11 -3 -15 6 -4 9 -15 7 -26 -2 -11 0 -22 6 -25
5 -4 9 12 9 34 0 23 -1 41 -2 41 -2 0 -9 -4 -17 -9z"/>
<path d="M1253 794 c-4 -11 1 -22 12 -30 18 -14 18 -14 0 -14 -14 0 -16 -3 -7
-12 17 -17 44 10 40 41 -4 30 -35 41 -45 15z m31 -15 c-3 -5 -10 -7 -15 -3 -5
3 -7 10 -3 15 3 5 10 7 15 3 5 -3 7 -10 3 -15z"/>
<path d="M1317 803 c-14 -13 -6 -34 16 -43 l22 -9 -24 0 c-17 -1 -22 -4 -15
-11 20 -20 44 0 44 36 0 26 -4 34 -18 34 -10 0 -22 -3 -25 -7z m28 -12 c3 -5
1 -12 -5 -16 -5 -3 -10 1 -10 9 0 18 6 21 15 7z"/>
<path d="M1393 803 c-8 -3 -11 -14 -7 -31 11 -46 24 -48 24 -4 0 23 -1 42 -2
41 -2 0 -9 -3 -15 -6z"/>
<path d="M1960 1579 c0 -2 6 -22 14 -43 12 -36 12 -45 -6 -93 l-21 -53 25 -49
24 -49 -44 39 c-25 21 -48 39 -51 39 -3 0 -7 -23 -9 -51 -1 -41 5 -68 33 -129
39 -87 43 -115 17 -129 -15 -8 -17 -5 -18 20 -2 32 -29 69 -51 69 -17 0 -17
-9 2 -30 19 -21 30 -82 20 -107 -5 -13 -13 1 -27 52 -23 84 -34 98 -43 55 -4
-17 -25 -49 -48 -71 -39 -38 -42 -43 -40 -92 6 -189 5 -203 -11 -239 -9 -21
-30 -53 -47 -72 l-30 -35 63 27 c53 22 76 26 146 24 76 -1 86 1 108 23 30 30
30 41 2 56 -50 27 -90 21 -147 -22 -29 -22 -55 -38 -58 -36 -2 3 13 23 35 46
30 32 47 41 73 42 95 2 129 19 173 89 21 32 44 61 52 64 34 13 9 21 -56 18
-38 -2 -70 0 -70 5 0 5 12 8 28 7 41 -2 80 15 88 38 14 44 -41 44 -65 -1 -9
-15 -37 -20 -70 -12 -2 1 36 22 85 47 49 25 97 53 107 63 27 26 27 71 2 131
-23 54 -23 54 -35 30 -6 -14 -26 -35 -44 -46 -26 -18 -36 -34 -50 -87 -10 -36
-24 -74 -32 -84 -13 -16 -13 -15 -3 12 6 17 20 71 30 120 23 105 40 135 74
135 18 0 23 4 19 15 -8 20 -33 19 -57 -2 -20 -18 -20 -18 -3 16 10 18 20 56
23 85 4 42 1 57 -19 85 -20 29 -88 91 -88 80z m59 -135 c-7 -24 -17 -44 -22
-44 -5 0 -6 10 -2 23 4 12 10 40 12 61 4 32 7 36 15 22 7 -12 6 -32 -3 -62z
m18 -42 c-10 -10 -17 -27 -18 -38 0 -19 -1 -19 -8 0 -7 19 13 53 33 55 5 1 2
-7 -7 -17z m-61 -169 c3 -19 -17 -16 -32 5 -19 24 -17 40 2 16 15 -19 16 -19
9 1 -16 44 -15 58 1 25 9 -19 18 -41 20 -47z m17 -33 c-7 -26 -25 -38 -21 -14
2 15 15 33 25 34 0 0 -1 -9 -4 -20z m118 -45 c-17 -29 -18 -35 -5 -35 8 0 17
7 20 15 4 8 11 15 17 15 15 0 -23 -39 -46 -46 -16 -5 -17 -8 -6 -15 11 -7 11
-9 -3 -9 -9 0 -31 -12 -49 -27 -30 -26 -31 -26 -18 -4 8 13 19 32 25 42 6 10
13 16 16 13 3 -2 18 16 32 41 15 25 29 45 32 45 3 0 -3 -16 -15 -35z m-275
-136 c-5 -34 -4 -40 8 -36 10 4 7 -5 -7 -27 -12 -19 -24 -32 -26 -30 -10 9 -9
38 0 56 7 12 6 25 -2 41 -11 20 -11 21 4 8 15 -12 17 -11 17 8 0 11 3 21 6 21
4 0 4 -19 0 -41z m84 -18 c-5 -11 -14 -31 -20 -46 -9 -24 -8 -25 13 -15 l22
11 -22 -17 c-13 -9 -48 -54 -78 -100 -31 -46 -61 -86 -67 -90 -13 -8 -12 -7
53 94 26 40 51 87 54 105 4 17 16 42 28 55 25 27 31 28 17 3z m-110 -86 c6 -4
19 -1 28 7 16 12 16 11 2 -7 -8 -11 -16 -22 -17 -24 -1 -2 -9 2 -18 9 -9 7
-15 8 -15 2 0 -6 5 -12 10 -14 11 -3 -6 -68 -18 -68 -4 0 -7 36 -7 81 0 73 1
78 12 51 7 -17 17 -33 23 -37z m156 -24 c-9 -16 -22 -31 -31 -34 -27 -11 -17
-28 13 -22 23 5 24 5 9 -5 -10 -7 -27 -10 -38 -7 -10 3 -21 1 -25 -4 -3 -5
-15 -14 -27 -20 -16 -8 -13 -2 11 21 17 17 32 36 32 41 0 6 4 8 9 4 5 -3 19 8
31 25 27 38 35 39 16 1z m74 14 c0 -8 -62 -37 -67 -31 -3 3 10 12 28 20 42 18
39 17 39 11z m-153 -191 c-3 -3 -12 -4 -19 -1 -8 3 -5 6 6 6 11 1 17 -2 13 -5z"/>
<path d="M1815 970 c-3 -5 -1 -10 4 -10 6 0 11 5 11 10 0 6 -2 10 -4 10 -3 0
-8 -4 -11 -10z"/>
<path d="M605 1529 c-68 -60 -77 -113 -38 -206 15 -37 15 -38 -4 -20 -24 21
-53 22 -53 2 0 -8 8 -15 18 -15 33 0 57 -39 68 -109 3 -20 16 -66 28 -103 12
-38 19 -68 15 -68 -8 0 -33 64 -49 126 -6 27 -18 45 -36 54 -14 8 -35 27 -46
43 l-20 29 -18 -40 c-33 -73 -34 -96 -5 -130 14 -17 64 -50 111 -72 46 -23 84
-43 84 -46 0 -2 -16 -4 -35 -4 -24 0 -35 5 -35 15 0 14 -29 35 -49 35 -19 0
-12 -49 8 -60 11 -5 39 -11 63 -11 39 -1 40 -2 13 -8 -16 -4 -52 -6 -78 -5
l-49 2 29 -28 c16 -16 38 -45 48 -65 26 -46 84 -75 154 -75 48 0 57 -3 87 -36
33 -34 42 -54 26 -54 -4 0 -13 9 -20 20 -7 12 -17 18 -22 15 -6 -3 -10 -1 -10
5 0 16 -63 40 -91 35 -34 -7 -79 -26 -79 -34 0 -4 13 -20 30 -36 28 -26 33
-28 94 -22 52 5 77 2 123 -14 32 -12 72 -22 88 -24 77 -9 121 -19 134 -32 7
-8 16 -11 19 -8 4 3 0 11 -8 16 -13 9 -12 10 2 6 27 -9 29 4 4 24 -13 10 -29
31 -35 47 -9 21 -27 35 -65 51 -29 12 -62 30 -74 41 -27 26 -33 25 -28 -2 3
-13 5 -33 5 -45 1 -12 13 -36 28 -54 23 -27 24 -30 6 -21 -40 22 -90 162 -73
208 28 74 13 159 -33 189 -23 15 -32 31 -52 90 -5 16 -10 9 -26 -35 -10 -30
-19 -65 -19 -77 0 -31 -18 -29 -26 2 -4 16 1 39 15 66 12 23 19 44 16 47 -11
11 -39 -14 -49 -45 -14 -41 -25 -51 -36 -33 -12 19 -4 51 31 124 27 56 33 87
30 149 -1 23 -4 26 -18 18 -10 -5 -33 -23 -50 -40 -38 -36 -41 -34 -13 11 23
39 25 85 5 112 -19 26 -19 76 1 104 22 32 0 27 -41 -9z m-2 -45 c-3 -8 0 -32
7 -53 10 -32 10 -43 -3 -67 -15 -26 -16 -27 -17 -7 0 12 -4 25 -10 28 -5 3
-10 12 -10 18 0 7 7 3 15 -7 23 -30 29 -11 11 33 -15 39 -13 71 5 71 4 0 6 -7
2 -16z m70 -204 c-3 -11 -9 -23 -14 -26 -5 -3 -9 -10 -9 -16 0 -6 10 -3 21 8
22 19 22 19 8 -3 -8 -13 -19 -23 -26 -23 -7 0 -12 -3 -12 -7 1 -5 1 -19 -1
-33 -1 -23 -2 -23 -9 -5 -5 11 -4 28 1 38 5 10 7 25 4 33 -3 9 -1 12 4 9 6 -3
14 5 20 19 11 31 20 35 13 6z m-173 -111 c0 -13 46 -80 51 -75 2 3 15 -11 27
-30 l23 -35 -33 23 c-18 13 -37 28 -43 34 -5 6 -23 18 -38 28 -16 10 -26 20
-23 23 3 4 14 -1 24 -10 26 -24 37 -21 20 6 -20 31 -30 59 -18 52 6 -3 10 -11
10 -16z m53 -39 c3 -11 1 -18 -4 -14 -5 3 -9 12 -9 20 0 20 7 17 13 -6z m248
-109 c7 10 8 7 4 -11 -2 -14 -1 -41 3 -60 l8 -35 12 33 c15 42 22 41 12 -3 -4
-19 -6 -55 -4 -80 2 -28 0 -44 -6 -40 -6 3 -10 13 -10 20 0 8 -15 31 -32 52
-18 21 -23 29 -10 19 18 -16 22 -16 22 -4 0 8 -9 27 -21 42 -11 14 -16 26 -10
26 6 0 11 -4 11 -10 0 -5 4 -10 9 -10 5 0 3 17 -4 37 -7 21 -10 42 -7 48 4 5
9 -1 10 -14 3 -19 6 -21 13 -10z m-74 -44 c7 -4 13 -17 13 -28 0 -26 23 -71
67 -131 19 -27 31 -48 26 -48 -4 0 -24 23 -43 51 -19 29 -50 67 -68 86 -18 20
-25 33 -17 29 18 -7 19 2 0 34 -8 14 -14 32 -14 40 0 10 3 9 11 -5 6 -11 17
-24 25 -28z m-88 -104 c2 -1 -3 -3 -11 -3 -9 0 -26 9 -39 20 l-24 20 35 -17
c19 -9 37 -18 39 -20z m56 -14 c6 0 24 -17 40 -37 27 -33 28 -35 5 -19 -13 9
-37 17 -51 17 -35 0 -59 9 -59 23 0 7 4 7 12 -1 7 -7 23 -12 37 -12 l25 0 -32
29 c-17 17 -32 35 -32 42 0 7 10 0 23 -14 12 -15 27 -27 32 -28z m302 -166
c23 -35 23 -36 -1 -27 -9 3 -14 10 -11 14 3 5 -9 23 -27 39 -29 27 -30 30 -8
19 14 -6 35 -26 47 -45z m31 -8 c-3 -3 -9 2 -12 12 -6 14 -5 15 5 6 7 -7 10
-15 7 -18z m42 -60 c0 -3 -9 0 -20 7 -11 7 -20 18 -20 25 0 8 8 5 20 -7 11
-11 20 -22 20 -25z"/>
<path d="M1671 1231 c-23 -15 -16 -90 14 -146 14 -28 24 -60 22 -72 -2 -12 0
-20 4 -17 12 7 11 55 0 73 -6 9 -6 22 1 34 12 23 3 34 -16 18 -11 -10 -15 -9
-18 6 -5 27 15 93 28 93 7 0 16 5 19 10 8 12 -35 13 -54 1z"/>
<path d="M1670 763 c-21 -21 -29 -33 -19 -33 8 0 19 3 25 8 5 4 -4 -5 -20 -19
-17 -15 -26 -31 -22 -37 4 -7 3 -12 -2 -12 -5 0 -26 -11 -47 -25 -20 -15 -40
-24 -42 -21 -3 2 4 11 16 18 12 7 21 20 21 28 0 8 5 22 10 30 8 11 9 8 4 -13
-9 -37 18 -27 33 13 12 33 8 42 -16 30 -9 -5 -24 -11 -34 -14 -10 -3 -22 -18
-28 -34 -9 -27 -10 -27 -79 -24 -39 2 -70 0 -70 -5 0 -5 22 -9 50 -8 60 1 72
-4 56 -27 -9 -13 -30 -18 -79 -19 -100 -3 -81 -14 23 -14 67 0 90 3 90 13 0 7
5 10 10 7 6 -4 8 -9 6 -13 -6 -10 132 -8 141 2 5 4 -5 7 -22 6 -16 -1 -50 -1
-75 0 l-45 2 40 9 c73 17 123 88 113 160 l-3 24 -35 -32z"/>
<path d="M714 553 c-95 -133 -92 -123 -42 -118 24 2 95 6 158 10 63 3 149 8
190 11 207 13 220 13 220 -2 0 -11 15 -14 65 -14 54 0 63 2 58 16 -5 13 3 15
63 10 38 -3 110 -8 159 -11 169 -9 290 -16 338 -20 26 -3 47 -2 47 1 0 10
-154 214 -162 214 -15 0 -8 -25 15 -60 13 -19 34 -52 46 -73 l23 -38 -23 5
c-13 3 -69 15 -124 26 -155 33 -321 27 -421 -15 -18 -7 -36 -10 -39 -6 -2 5
-31 16 -64 25 -107 30 -299 20 -451 -24 -61 -17 -62 -12 -10 71 27 44 50 82
50 85 0 2 -6 4 -13 4 -8 0 -45 -44 -83 -97z"/>
<path d="M820 591 c0 -10 26 -9 36 2 4 4 -2 7 -14 7 -12 0 -22 -4 -22 -9z"/>
<path d="M870 593 c0 -10 57 -9 67 0 3 4 -10 7 -30 7 -20 0 -37 -3 -37 -7z"/>
<path d="M950 589 c0 -4 16 -7 35 -6 19 1 35 6 35 10 0 4 -16 7 -35 5 -19 -1
-35 -5 -35 -9z"/>
<path d="M1030 592 c0 -4 9 -8 20 -9 11 -1 20 2 20 5 0 4 -9 8 -20 9 -11 1
-20 -2 -20 -5z"/>
<path d="M1125 590 c-5 -8 123 -5 131 3 3 3 -24 5 -60 5 -37 -1 -69 -4 -71 -8z"/>
<path d="M1710 590 c0 -5 5 -10 10 -10 6 0 10 5 10 10 0 6 -4 10 -10 10 -5 0
-10 -4 -10 -10z"/>
<path d="M1740 592 c0 -4 11 -8 25 -8 14 0 25 4 25 8 0 4 -11 8 -25 8 -14 0
-25 -4 -25 -8z"/>
</g>
</svg>
